<svg width="32" height="32" viewBox="0 0 32 32" fill="none" xmlns="http://www.w3.org/2000/svg">
<path fill-rule="evenodd" clip-rule="evenodd" d="M4.80005 8C4.80005 7.11635 5.51639 6.4 6.40005 6.4H25.6C26.4837 6.4 27.2001 7.11635 27.2001 8C27.2001 8.88366 26.4837 9.6 25.6 9.6H6.40005C5.51639 9.6 4.80005 8.88366 4.80005 8Z" fill="#E7F0F4"/>
<path fill-rule="evenodd" clip-rule="evenodd" d="M4.80005 16C4.80005 15.1163 5.51639 14.4 6.40005 14.4H25.6C26.4837 14.4 27.2001 15.1163 27.2001 16C27.2001 16.8837 26.4837 17.6 25.6 17.6H6.40005C5.51639 17.6 4.80005 16.8837 4.80005 16Z" fill="#E7F0F4"/>
<path fill-rule="evenodd" clip-rule="evenodd" d="M4.80005 24C4.80005 23.1163 5.51639 22.4 6.40005 22.4H25.6C26.4837 22.4 27.2001 23.1163 27.2001 24C27.2001 24.8837 26.4837 25.6 25.6 25.6H6.40005C5.51639 25.6 4.80005 24.8837 4.80005 24Z" fill="#E7F0F4"/>
</svg>
